<svg viewBox="0 0 330 491" version="1.1" xmlns="http://www.w3.org/2000/svg" xmlns:xlink="http://www.w3.org/1999/xlink">
    <defs>
        <circle id="path-1" cx="165" cy="165" r="165"></circle>
    </defs>
    <g id="Page-1" stroke="none" stroke-width="1" fill="none" fill-rule="evenodd">
        <g id="Logo">
            <mask id="mask-2" fill="white">
                <use xlink:href="#path-1"></use>
            </mask>
            <use id="Background" fill="#173E43" xlink:href="#path-1"></use>
            <g id="Sticks" mask="url(#mask-2)" fill="#DDDFD4">
                <g transform="translate(-27.000000, 105.000000)">
                    <path d="M246.23869,4.87435239 C247.635207,-7.60989341 258.225429,-17.3154429 271.082504,-17.3154429 C283.939579,-17.3154429 294.529802,-7.60989341 295.926318,4.87435239 L296.056001,4.87435239 L296.056001,6.52306272 C296.073606,6.90802093 296.082504,7.29524983 296.082504,7.6845571 C296.082504,8.07386437 296.073606,8.46109327 296.056001,8.84605148 L296.056001,274.874352 L246.056001,274.874352 L246.056001,4.87435239 L246.23869,4.87435239 Z" id="Right" transform="translate(271.069253, 128.779455) rotate(-40.000000) translate(-271.069253, -128.779455) "></path>
                    <path d="M88.3392154,4.78477017 C89.7357321,-7.69947564 100.325955,-17.4050251 113.18303,-17.4050251 C126.040104,-17.4050251 136.630327,-7.69947564 138.026844,4.78477017 L138.156526,4.78477017 L138.156526,6.43348049 C138.174131,6.81843871 138.18303,7.2056676 138.18303,7.59497487 C138.18303,7.98428214 138.174131,8.37151104 138.156526,8.75646926 L138.156526,274.78477 L88.1565261,274.78477 L88.1565261,4.78477017 L88.3392154,4.78477017 Z" id="Left" transform="translate(113.169778, 128.689873) rotate(40.000000) translate(-113.169778, -128.689873) "></path>
                </g>
            </g>
            <polygon id="Cutout" fill="#DDDFD4" mask="url(#mask-2)" points="165.5 253 263 372 68 372"></polygon>
        </g>
        <g id="Beta" transform="translate(0.000000, 366.000000)">
            <rect id="Rectangle" fill="#173E43" x="0" y="0" width="330" height="125" rx="28"></rect>
            <text id="BETA" font-family="ApercuBold-ApercuBold, Apercu Bold" font-size="100" font-weight="bold" fill="#DDDFD4">
                <tspan x="48.3496094" y="95">BETA</tspan>
            </text>
        </g>
    </g>
</svg>